<svg width="32" height="21" viewBox="0 0 32 21" fill="none" xmlns="http://www.w3.org/2000/svg">
<path d="M29.4861 6.04884L24.1352 8.49165C23.5535 8.78246 23.2627 9.48041 23.5535 10.062C23.8444 10.6436 24.5423 10.9345 25.1239 10.6437L30.4748 8.20084C31.0565 7.91003 31.3473 7.21208 31.0565 6.63046C30.7656 6.04884 30.0677 5.75803 29.4861 6.04884Z" fill="#FF6D0D"/>
<path d="M1.74306 8.7244L7.09398 6.28159C7.6756 5.99078 7.96641 5.29283 7.6756 4.71121C7.38479 4.12959 6.68684 3.83878 6.10522 4.12959L0.754302 6.5724C0.17268 6.86321 -0.118131 7.56116 0.17268 8.14278C0.405329 8.7244 1.10327 9.01521 1.74306 8.7244Z" fill="#FF6D0D"/>
<path d="M1.74306 12.563L7.09398 10.1202C7.6756 9.8294 7.96641 9.13146 7.6756 8.54983C7.38479 7.96821 6.68684 7.6774 6.10522 7.96821L0.754302 10.411C0.17268 10.7018 -0.118131 11.3998 0.17268 11.9814C0.405329 12.563 1.10327 12.7957 1.74306 12.563Z" fill="#FF6D0D"/>
<path d="M1.74263 16.4017L7.03538 13.9589C7.61701 13.6681 7.90782 12.9701 7.61701 12.3885C7.32619 11.8069 6.62825 11.5161 6.04663 11.8069L0.695708 14.2497C0.114087 14.5405 -0.176724 15.2385 0.114086 15.8201C0.404897 16.4017 1.10284 16.6925 1.74263 16.4017Z" fill="#FF6D0D"/>
<path d="M29.4861 9.88749L24.1352 12.3303C23.5535 12.6211 23.2627 13.3191 23.5535 13.9007C23.8444 14.4823 24.5423 14.7731 25.1239 14.4823L30.4748 12.0395C31.0565 11.7487 31.3473 11.0507 31.0565 10.4691C30.7656 9.88749 30.0677 9.65484 29.4861 9.88749Z" fill="#FF6D0D"/>
<path d="M24.5993 15.8201C24.483 15.8201 24.3667 15.8201 24.2503 15.8201V15.9364C24.2503 16.4599 23.8432 16.867 23.3197 16.867H17.678V3.66422H23.3197C23.8432 3.66422 24.2503 4.07135 24.2503 4.59481V7.09578L28.9615 4.94378C29.2523 4.82746 29.6012 4.71114 29.9502 4.71114C30.0665 4.71114 30.241 4.71114 30.3574 4.7693V3.8387C30.3574 1.74486 28.6125 0 26.5187 0H4.70784C2.55584 0 0.869141 1.74486 0.869141 3.8387V5.23459L5.58028 3.08259C5.87109 2.90811 6.22006 2.84995 6.56903 2.84995C7.26698 2.84995 7.90676 3.14076 8.37206 3.66422H13.4903V16.8089H7.90676C7.3833 16.8089 6.97617 16.4017 6.97617 15.8783V15.3548L2.20687 17.5068C1.91606 17.6231 1.56709 17.7395 1.21811 17.7395C1.15995 17.7395 1.04363 17.7395 0.985465 17.7395C1.45076 19.3098 2.96298 20.4731 4.70784 20.4731H26.5768C28.6707 20.4731 30.4155 18.7282 30.4155 16.6344V13.3773L25.6462 15.5293C25.2972 15.7038 24.9483 15.8201 24.5993 15.8201Z" fill="#FF6D0D"/>
</svg>
