<svg width="11" height="19" viewBox="0 0 11 19" fill="none" xmlns="http://www.w3.org/2000/svg">
<path fill-rule="evenodd" clip-rule="evenodd" d="M1.09807 1.16033C1.15903 1.09921 1.23145 1.05073 1.31118 1.01764C1.39091 0.984559 1.47638 0.967529 1.5627 0.967529C1.64902 0.967529 1.73449 0.984559 1.81422 1.01764C1.89394 1.05073 1.96636 1.09921 2.02732 1.16033L9.90232 9.03533C9.96343 9.09629 10.0119 9.16871 10.045 9.24843C10.0781 9.32816 10.0951 9.41363 10.0951 9.49995C10.0951 9.58627 10.0781 9.67174 10.045 9.75147C10.0119 9.8312 9.96343 9.90362 9.90232 9.96458L2.02732 17.8396C1.90409 17.9628 1.73696 18.032 1.56269 18.032C1.38843 18.032 1.22129 17.9628 1.09807 17.8396C0.974842 17.7164 0.905614 17.5492 0.905614 17.375C0.905614 17.2007 0.974842 17.0336 1.09807 16.9103L8.50976 9.49995L1.09807 2.08958C1.03696 2.02862 0.988469 1.9562 0.955386 1.87647C0.922302 1.79674 0.905273 1.71127 0.905273 1.62495C0.905273 1.53863 0.922302 1.45316 0.955386 1.37343C0.988469 1.29371 1.03696 1.22129 1.09807 1.16033Z" fill="white" stroke="white" stroke-width="0.5"/>
</svg>
