<svg width="21" height="21" viewBox="0 0 21 21" fill="none" xmlns="http://www.w3.org/2000/svg">
<path fill-rule="evenodd" clip-rule="evenodd" d="M14.9019 18.8397C14.841 18.9008 14.7686 18.9493 14.6888 18.9824C14.6091 19.0154 14.5236 19.0325 14.4373 19.0325C14.351 19.0325 14.2655 19.0154 14.1858 18.9824C14.1061 18.9493 14.0336 18.9008 13.9727 18.8397L6.09768 10.9647C6.03656 10.9037 5.98808 10.8313 5.95499 10.7516C5.92191 10.6718 5.90488 10.5864 5.90488 10.5C5.90488 10.4137 5.92191 10.3283 5.95499 10.2485C5.98808 10.1688 6.03656 10.0964 6.09768 10.0354L13.9727 2.16042C14.0959 2.0372 14.263 1.96797 14.4373 1.96797C14.6116 1.96797 14.7787 2.0372 14.9019 2.16042C15.0252 2.28365 15.0944 2.45078 15.0944 2.62505C15.0944 2.79932 15.0252 2.96645 14.9019 3.08967L7.49024 10.5L14.9019 17.9104C14.963 17.9714 15.0115 18.0438 15.0446 18.1235C15.0777 18.2033 15.0947 18.2887 15.0947 18.375C15.0947 18.4614 15.0777 18.5468 15.0446 18.6266C15.0115 18.7063 14.963 18.7787 14.9019 18.8397Z" fill="white" stroke="white" stroke-width="0.5"/>
</svg>
