<svg width="14" height="15" viewBox="0 0 14 15" fill="none" xmlns="http://www.w3.org/2000/svg">
<path d="M0.293723 1.1684C0.386594 1.07557 0.496921 1.00192 0.618385 0.951668C0.739849 0.901416 0.870063 0.875549 1.00157 0.875549C1.13307 0.875549 1.26329 0.901416 1.38475 0.951668C1.50622 1.00192 1.61654 1.07557 1.70941 1.1684L7.00026 6.44557L12.2911 1.1684C12.3841 1.07572 12.4944 1.0022 12.6159 0.952046C12.7373 0.901887 12.8675 0.876071 12.999 0.876071C13.1304 0.876071 13.2606 0.901887 13.382 0.952046C13.5035 1.0022 13.6138 1.07572 13.7068 1.1684C13.7998 1.26108 13.8735 1.37111 13.9238 1.4922C13.9741 1.61329 14 1.74308 14 1.87415C14 2.00522 13.9741 2.13501 13.9238 2.2561C13.8735 2.37719 13.7998 2.48722 13.7068 2.5799L8.41395 7.85507L13.7068 13.1302C13.7998 13.2229 13.8735 13.3329 13.9238 13.454C13.9741 13.5751 14 13.7049 14 13.836C14 13.9671 13.9741 14.0968 13.9238 14.2179C13.8735 14.339 13.7998 14.4491 13.7068 14.5417C13.6138 14.6344 13.5035 14.7079 13.382 14.7581C13.2606 14.8083 13.1304 14.8341 12.999 14.8341C12.8675 14.8341 12.7373 14.8083 12.6159 14.7581C12.4944 14.7079 12.3841 14.6344 12.2911 14.5417L7.00026 9.26457L1.70941 14.5417C1.61646 14.6344 1.50611 14.7079 1.38465 14.7581C1.2632 14.8083 1.13303 14.8341 1.00157 14.8341C0.87011 14.8341 0.739938 14.8083 0.618485 14.7581C0.497033 14.7079 0.386679 14.6344 0.293723 14.5417C0.200767 14.4491 0.127031 14.339 0.0767236 14.2179C0.0264163 14.0968 0.000523453 13.9671 0.000523453 13.836C0.000523453 13.7049 0.0264163 13.5751 0.0767236 13.454C0.127031 13.3329 0.200767 13.2229 0.293723 13.1302L5.58657 7.85507L0.293723 2.5799C0.200617 2.4873 0.126747 2.3773 0.076345 2.2562C0.0259431 2.1351 0 2.00527 0 1.87415C0 1.74303 0.0259431 1.61321 0.076345 1.4921C0.126747 1.371 0.200617 1.261 0.293723 1.1684Z" fill="#5C5D61"/>
</svg>
